<?xml version="1.0" encoding="utf-8" standalone="no"?>
<!DOCTYPE svg PUBLIC "-//W3C//DTD SVG 1.1//EN"
  "http://www.w3.org/Graphics/SVG/1.1/DTD/svg11.dtd">
<!-- Created with matplotlib (http://matplotlib.org/) -->
<svg height="504pt" version="1.1" viewBox="0 0 504 504" width="504pt" xmlns="http://www.w3.org/2000/svg" xmlns:xlink="http://www.w3.org/1999/xlink">
 <defs>
  <style type="text/css">
*{stroke-linecap:butt;stroke-linejoin:round;}
  </style>
 </defs>
 <g id="figure_1">
  <g id="patch_1">
   <path d="M 0 504 
L 504 504 
L 504 0 
L 0 0 
z
" style="fill:#ffffff;"/>
  </g>
  <g id="axes_1">
   <g id="patch_2">
    <path d="M 63 233.443636 
L 453.6 233.443636 
L 453.6 60.48 
L 63 60.48 
z
" style="fill:#ffffff;"/>
   </g>
   <g id="matplotlib.axis_1">
    <g id="xtick_1">
     <g id="line2d_1">
      <path clip-path="url(#p6d95d90aac)" d="M 136.358437 233.443636 
L 136.358437 60.48 
" style="fill:none;stroke:#b0b0b0;stroke-linecap:square;stroke-width:0.8;"/>
     </g>
     <g id="line2d_2">
      <defs>
       <path d="M 0 0 
L 0 3.5 
" id="m6baf0dc11e" style="stroke:#000000;stroke-width:0.8;"/>
      </defs>
      <g>
       <use style="stroke:#000000;stroke-width:0.8;" x="136.358437" xlink:href="#m6baf0dc11e" y="233.443636"/>
      </g>
     </g>
     <g id="text_1">
      <!-- 0.2 -->
      <defs>
       <path d="M 31.78125 66.40625 
Q 24.171875 66.40625 20.328125 58.90625 
Q 16.5 51.421875 16.5 36.375 
Q 16.5 21.390625 20.328125 13.890625 
Q 24.171875 6.390625 31.78125 6.390625 
Q 39.453125 6.390625 43.28125 13.890625 
Q 47.125 21.390625 47.125 36.375 
Q 47.125 51.421875 43.28125 58.90625 
Q 39.453125 66.40625 31.78125 66.40625 
z
M 31.78125 74.21875 
Q 44.046875 74.21875 50.515625 64.515625 
Q 56.984375 54.828125 56.984375 36.375 
Q 56.984375 17.96875 50.515625 8.265625 
Q 44.046875 -1.421875 31.78125 -1.421875 
Q 19.53125 -1.421875 13.0625 8.265625 
Q 6.59375 17.96875 6.59375 36.375 
Q 6.59375 54.828125 13.0625 64.515625 
Q 19.53125 74.21875 31.78125 74.21875 
z
" id="DejaVuSans-30"/>
       <path d="M 10.6875 12.40625 
L 21 12.40625 
L 21 0 
L 10.6875 0 
z
" id="DejaVuSans-2e"/>
       <path d="M 19.1875 8.296875 
L 53.609375 8.296875 
L 53.609375 0 
L 7.328125 0 
L 7.328125 8.296875 
Q 12.9375 14.109375 22.625 23.890625 
Q 32.328125 33.6875 34.8125 36.53125 
Q 39.546875 41.84375 41.421875 45.53125 
Q 43.3125 49.21875 43.3125 52.78125 
Q 43.3125 58.59375 39.234375 62.25 
Q 35.15625 65.921875 28.609375 65.921875 
Q 23.96875 65.921875 18.8125 64.3125 
Q 13.671875 62.703125 7.8125 59.421875 
L 7.8125 69.390625 
Q 13.765625 71.78125 18.9375 73 
Q 24.125 74.21875 28.421875 74.21875 
Q 39.75 74.21875 46.484375 68.546875 
Q 53.21875 62.890625 53.21875 53.421875 
Q 53.21875 48.921875 51.53125 44.890625 
Q 49.859375 40.875 45.40625 35.40625 
Q 44.1875 33.984375 37.640625 27.21875 
Q 31.109375 20.453125 19.1875 8.296875 
z
" id="DejaVuSans-32"/>
      </defs>
      <g transform="translate(128.406875 248.042074)scale(0.1 -0.1)">
       <use xlink:href="#DejaVuSans-30"/>
       <use x="63.623047" xlink:href="#DejaVuSans-2e"/>
       <use x="95.410156" xlink:href="#DejaVuSans-32"/>
      </g>
     </g>
    </g>
    <g id="xtick_2">
     <g id="line2d_3">
      <path clip-path="url(#p6d95d90aac)" d="M 218.594734 233.443636 
L 218.594734 60.48 
" style="fill:none;stroke:#b0b0b0;stroke-linecap:square;stroke-width:0.8;"/>
     </g>
     <g id="line2d_4">
      <g>
       <use style="stroke:#000000;stroke-width:0.8;" x="218.594734" xlink:href="#m6baf0dc11e" y="233.443636"/>
      </g>
     </g>
     <g id="text_2">
      <!-- 0.4 -->
      <defs>
       <path d="M 37.796875 64.3125 
L 12.890625 25.390625 
L 37.796875 25.390625 
z
M 35.203125 72.90625 
L 47.609375 72.90625 
L 47.609375 25.390625 
L 58.015625 25.390625 
L 58.015625 17.1875 
L 47.609375 17.1875 
L 47.609375 0 
L 37.796875 0 
L 37.796875 17.1875 
L 4.890625 17.1875 
L 4.890625 26.703125 
z
" id="DejaVuSans-34"/>
      </defs>
      <g transform="translate(210.643172 248.042074)scale(0.1 -0.1)">
       <use xlink:href="#DejaVuSans-30"/>
       <use x="63.623047" xlink:href="#DejaVuSans-2e"/>
       <use x="95.410156" xlink:href="#DejaVuSans-34"/>
      </g>
     </g>
    </g>
    <g id="xtick_3">
     <g id="line2d_5">
      <path clip-path="url(#p6d95d90aac)" d="M 300.831031 233.443636 
L 300.831031 60.48 
" style="fill:none;stroke:#b0b0b0;stroke-linecap:square;stroke-width:0.8;"/>
     </g>
     <g id="line2d_6">
      <g>
       <use style="stroke:#000000;stroke-width:0.8;" x="300.831031" xlink:href="#m6baf0dc11e" y="233.443636"/>
      </g>
     </g>
     <g id="text_3">
      <!-- 0.6 -->
      <defs>
       <path d="M 33.015625 40.375 
Q 26.375 40.375 22.484375 35.828125 
Q 18.609375 31.296875 18.609375 23.390625 
Q 18.609375 15.53125 22.484375 10.953125 
Q 26.375 6.390625 33.015625 6.390625 
Q 39.65625 6.390625 43.53125 10.953125 
Q 47.40625 15.53125 47.40625 23.390625 
Q 47.40625 31.296875 43.53125 35.828125 
Q 39.65625 40.375 33.015625 40.375 
z
M 52.59375 71.296875 
L 52.59375 62.3125 
Q 48.875 64.0625 45.09375 64.984375 
Q 41.3125 65.921875 37.59375 65.921875 
Q 27.828125 65.921875 22.671875 59.328125 
Q 17.53125 52.734375 16.796875 39.40625 
Q 19.671875 43.65625 24.015625 45.921875 
Q 28.375 48.1875 33.59375 48.1875 
Q 44.578125 48.1875 50.953125 41.515625 
Q 57.328125 34.859375 57.328125 23.390625 
Q 57.328125 12.15625 50.6875 5.359375 
Q 44.046875 -1.421875 33.015625 -1.421875 
Q 20.359375 -1.421875 13.671875 8.265625 
Q 6.984375 17.96875 6.984375 36.375 
Q 6.984375 53.65625 15.1875 63.9375 
Q 23.390625 74.21875 37.203125 74.21875 
Q 40.921875 74.21875 44.703125 73.484375 
Q 48.484375 72.75 52.59375 71.296875 
z
" id="DejaVuSans-36"/>
      </defs>
      <g transform="translate(292.879468 248.042074)scale(0.1 -0.1)">
       <use xlink:href="#DejaVuSans-30"/>
       <use x="63.623047" xlink:href="#DejaVuSans-2e"/>
       <use x="95.410156" xlink:href="#DejaVuSans-36"/>
      </g>
     </g>
    </g>
    <g id="xtick_4">
     <g id="line2d_7">
      <path clip-path="url(#p6d95d90aac)" d="M 383.067328 233.443636 
L 383.067328 60.48 
" style="fill:none;stroke:#b0b0b0;stroke-linecap:square;stroke-width:0.8;"/>
     </g>
     <g id="line2d_8">
      <g>
       <use style="stroke:#000000;stroke-width:0.8;" x="383.067328" xlink:href="#m6baf0dc11e" y="233.443636"/>
      </g>
     </g>
     <g id="text_4">
      <!-- 0.8 -->
      <defs>
       <path d="M 31.78125 34.625 
Q 24.75 34.625 20.71875 30.859375 
Q 16.703125 27.09375 16.703125 20.515625 
Q 16.703125 13.921875 20.71875 10.15625 
Q 24.75 6.390625 31.78125 6.390625 
Q 38.8125 6.390625 42.859375 10.171875 
Q 46.921875 13.96875 46.921875 20.515625 
Q 46.921875 27.09375 42.890625 30.859375 
Q 38.875 34.625 31.78125 34.625 
z
M 21.921875 38.8125 
Q 15.578125 40.375 12.03125 44.71875 
Q 8.5 49.078125 8.5 55.328125 
Q 8.5 64.0625 14.71875 69.140625 
Q 20.953125 74.21875 31.78125 74.21875 
Q 42.671875 74.21875 48.875 69.140625 
Q 55.078125 64.0625 55.078125 55.328125 
Q 55.078125 49.078125 51.53125 44.71875 
Q 48 40.375 41.703125 38.8125 
Q 48.828125 37.15625 52.796875 32.3125 
Q 56.78125 27.484375 56.78125 20.515625 
Q 56.78125 9.90625 50.3125 4.234375 
Q 43.84375 -1.421875 31.78125 -1.421875 
Q 19.734375 -1.421875 13.25 4.234375 
Q 6.78125 9.90625 6.78125 20.515625 
Q 6.78125 27.484375 10.78125 32.3125 
Q 14.796875 37.15625 21.921875 38.8125 
z
M 18.3125 54.390625 
Q 18.3125 48.734375 21.84375 45.5625 
Q 25.390625 42.390625 31.78125 42.390625 
Q 38.140625 42.390625 41.71875 45.5625 
Q 45.3125 48.734375 45.3125 54.390625 
Q 45.3125 60.0625 41.71875 63.234375 
Q 38.140625 66.40625 31.78125 66.40625 
Q 25.390625 66.40625 21.84375 63.234375 
Q 18.3125 60.0625 18.3125 54.390625 
z
" id="DejaVuSans-38"/>
      </defs>
      <g transform="translate(375.115765 248.042074)scale(0.1 -0.1)">
       <use xlink:href="#DejaVuSans-30"/>
       <use x="63.623047" xlink:href="#DejaVuSans-2e"/>
       <use x="95.410156" xlink:href="#DejaVuSans-38"/>
      </g>
     </g>
    </g>
   </g>
   <g id="matplotlib.axis_2">
    <g id="ytick_1">
     <g id="line2d_9">
      <path clip-path="url(#p6d95d90aac)" d="M 63 223.843325 
L 453.6 223.843325 
" style="fill:none;stroke:#b0b0b0;stroke-linecap:square;stroke-width:0.8;"/>
     </g>
     <g id="line2d_10">
      <defs>
       <path d="M 0 0 
L -3.5 0 
" id="m2dce88b41f" style="stroke:#000000;stroke-width:0.8;"/>
      </defs>
      <g>
       <use style="stroke:#000000;stroke-width:0.8;" x="63" xlink:href="#m2dce88b41f" y="223.843325"/>
      </g>
     </g>
     <g id="text_5">
      <!-- 0.2 -->
      <g transform="translate(40.096875 227.642544)scale(0.1 -0.1)">
       <use xlink:href="#DejaVuSans-30"/>
       <use x="63.623047" xlink:href="#DejaVuSans-2e"/>
       <use x="95.410156" xlink:href="#DejaVuSans-32"/>
      </g>
     </g>
    </g>
    <g id="ytick_2">
     <g id="line2d_11">
      <path clip-path="url(#p6d95d90aac)" d="M 63 184.96799 
L 453.6 184.96799 
" style="fill:none;stroke:#b0b0b0;stroke-linecap:square;stroke-width:0.8;"/>
     </g>
     <g id="line2d_12">
      <g>
       <use style="stroke:#000000;stroke-width:0.8;" x="63" xlink:href="#m2dce88b41f" y="184.96799"/>
      </g>
     </g>
     <g id="text_6">
      <!-- 0.4 -->
      <g transform="translate(40.096875 188.767208)scale(0.1 -0.1)">
       <use xlink:href="#DejaVuSans-30"/>
       <use x="63.623047" xlink:href="#DejaVuSans-2e"/>
       <use x="95.410156" xlink:href="#DejaVuSans-34"/>
      </g>
     </g>
    </g>
    <g id="ytick_3">
     <g id="line2d_13">
      <path clip-path="url(#p6d95d90aac)" d="M 63 146.092654 
L 453.6 146.092654 
" style="fill:none;stroke:#b0b0b0;stroke-linecap:square;stroke-width:0.8;"/>
     </g>
     <g id="line2d_14">
      <g>
       <use style="stroke:#000000;stroke-width:0.8;" x="63" xlink:href="#m2dce88b41f" y="146.092654"/>
      </g>
     </g>
     <g id="text_7">
      <!-- 0.6 -->
      <g transform="translate(40.096875 149.891873)scale(0.1 -0.1)">
       <use xlink:href="#DejaVuSans-30"/>
       <use x="63.623047" xlink:href="#DejaVuSans-2e"/>
       <use x="95.410156" xlink:href="#DejaVuSans-36"/>
      </g>
     </g>
    </g>
    <g id="ytick_4">
     <g id="line2d_15">
      <path clip-path="url(#p6d95d90aac)" d="M 63 107.217319 
L 453.6 107.217319 
" style="fill:none;stroke:#b0b0b0;stroke-linecap:square;stroke-width:0.8;"/>
     </g>
     <g id="line2d_16">
      <g>
       <use style="stroke:#000000;stroke-width:0.8;" x="63" xlink:href="#m2dce88b41f" y="107.217319"/>
      </g>
     </g>
     <g id="text_8">
      <!-- 0.8 -->
      <g transform="translate(40.096875 111.016538)scale(0.1 -0.1)">
       <use xlink:href="#DejaVuSans-30"/>
       <use x="63.623047" xlink:href="#DejaVuSans-2e"/>
       <use x="95.410156" xlink:href="#DejaVuSans-38"/>
      </g>
     </g>
    </g>
    <g id="ytick_5">
     <g id="line2d_17">
      <path clip-path="url(#p6d95d90aac)" d="M 63 68.341983 
L 453.6 68.341983 
" style="fill:none;stroke:#b0b0b0;stroke-linecap:square;stroke-width:0.8;"/>
     </g>
     <g id="line2d_18">
      <g>
       <use style="stroke:#000000;stroke-width:0.8;" x="63" xlink:href="#m2dce88b41f" y="68.341983"/>
      </g>
     </g>
     <g id="text_9">
      <!-- 1.0 -->
      <defs>
       <path d="M 12.40625 8.296875 
L 28.515625 8.296875 
L 28.515625 63.921875 
L 10.984375 60.40625 
L 10.984375 69.390625 
L 28.421875 72.90625 
L 38.28125 72.90625 
L 38.28125 8.296875 
L 54.390625 8.296875 
L 54.390625 0 
L 12.40625 0 
z
" id="DejaVuSans-31"/>
      </defs>
      <g transform="translate(40.096875 72.141202)scale(0.1 -0.1)">
       <use xlink:href="#DejaVuSans-31"/>
       <use x="63.623047" xlink:href="#DejaVuSans-2e"/>
       <use x="95.410156" xlink:href="#DejaVuSans-30"/>
      </g>
     </g>
    </g>
    <g id="text_10">
     <!-- $P(y=1)$ -->
     <defs>
      <path d="M 16.890625 72.90625 
L 39.703125 72.90625 
Q 49.65625 72.90625 54.875 68.265625 
Q 60.109375 63.625 60.109375 54.6875 
Q 60.109375 42.671875 52.390625 35.984375 
Q 44.671875 29.296875 30.71875 29.296875 
L 18.3125 29.296875 
L 12.59375 0 
L 2.6875 0 
z
M 25.203125 64.796875 
L 19.921875 37.40625 
L 32.328125 37.40625 
Q 40.71875 37.40625 45.203125 41.703125 
Q 49.703125 46 49.703125 54 
Q 49.703125 59.125 46.65625 61.953125 
Q 43.609375 64.796875 38.09375 64.796875 
z
" id="DejaVuSans-Oblique-50"/>
      <path d="M 31 75.875 
Q 24.46875 64.65625 21.28125 53.65625 
Q 18.109375 42.671875 18.109375 31.390625 
Q 18.109375 20.125 21.3125 9.0625 
Q 24.515625 -2 31 -13.1875 
L 23.1875 -13.1875 
Q 15.875 -1.703125 12.234375 9.375 
Q 8.59375 20.453125 8.59375 31.390625 
Q 8.59375 42.28125 12.203125 53.3125 
Q 15.828125 64.359375 23.1875 75.875 
z
" id="DejaVuSans-28"/>
      <path d="M 24.8125 -5.078125 
Q 18.5625 -15.578125 14.625 -18.1875 
Q 10.6875 -20.796875 4.59375 -20.796875 
L -2.484375 -20.796875 
L -0.984375 -13.28125 
L 4.203125 -13.28125 
Q 7.953125 -13.28125 10.59375 -11.234375 
Q 13.234375 -9.1875 16.5 -3.21875 
L 19.28125 2 
L 7.171875 54.6875 
L 16.703125 54.6875 
L 25.78125 12.796875 
L 50.875 54.6875 
L 60.296875 54.6875 
z
" id="DejaVuSans-Oblique-79"/>
      <path d="M 10.59375 45.40625 
L 73.1875 45.40625 
L 73.1875 37.203125 
L 10.59375 37.203125 
z
M 10.59375 25.484375 
L 73.1875 25.484375 
L 73.1875 17.1875 
L 10.59375 17.1875 
z
" id="DejaVuSans-3d"/>
      <path d="M 8.015625 75.875 
L 15.828125 75.875 
Q 23.140625 64.359375 26.78125 53.3125 
Q 30.421875 42.28125 30.421875 31.390625 
Q 30.421875 20.453125 26.78125 9.375 
Q 23.140625 -1.703125 15.828125 -13.1875 
L 8.015625 -13.1875 
Q 14.5 -2 17.703125 9.0625 
Q 20.90625 20.125 20.90625 31.390625 
Q 20.90625 42.671875 17.703125 53.65625 
Q 14.5 64.65625 8.015625 75.875 
z
" id="DejaVuSans-29"/>
     </defs>
     <g transform="translate(33.996875 166.161818)rotate(-90)scale(0.1 -0.1)">
      <use transform="translate(0 0.125)" xlink:href="#DejaVuSans-Oblique-50"/>
      <use transform="translate(60.302734 0.125)" xlink:href="#DejaVuSans-28"/>
      <use transform="translate(99.316406 0.125)" xlink:href="#DejaVuSans-Oblique-79"/>
      <use transform="translate(177.978516 0.125)" xlink:href="#DejaVuSans-3d"/>
      <use transform="translate(281.25 0.125)" xlink:href="#DejaVuSans-31"/>
      <use transform="translate(344.873047 0.125)" xlink:href="#DejaVuSans-29"/>
     </g>
    </g>
   </g>
   <g id="line2d_19">
    <path clip-path="url(#p6d95d90aac)" d="M 81.771944 218.323987 
L 107.062909 207.991246 
L 132.353874 200.240443 
L 157.644839 184.486561 
L 182.935804 184.094386 
L 208.226769 164.699652 
L 233.517734 188.574979 
L 258.808699 175.935451 
L 284.099664 155.063885 
L 309.390629 145.429535 
L 334.681594 135.77879 
L 359.972559 112.201336 
L 385.263524 90.903562 
L 410.554489 68.341983 
L 435.845455 68.341983 
" style="fill:none;stroke:#1f77b4;stroke-linecap:square;stroke-width:1.5;"/>
    <defs>
     <path d="M 0 3 
C 0.795609 3 1.55874 2.683901 2.12132 2.12132 
C 2.683901 1.55874 3 0.795609 3 0 
C 3 -0.795609 2.683901 -1.55874 2.12132 -2.12132 
C 1.55874 -2.683901 0.795609 -3 0 -3 
C -0.795609 -3 -1.55874 -2.683901 -2.12132 -2.12132 
C -2.683901 -1.55874 -3 -0.795609 -3 0 
C -3 0.795609 -2.683901 1.55874 -2.12132 2.12132 
C -1.55874 2.683901 -0.795609 3 0 3 
z
" id="mbd044bc12e" style="stroke:#1f77b4;"/>
    </defs>
    <g clip-path="url(#p6d95d90aac)">
     <use style="fill:#1f77b4;stroke:#1f77b4;" x="81.771944" xlink:href="#mbd044bc12e" y="218.323987"/>
     <use style="fill:#1f77b4;stroke:#1f77b4;" x="107.062909" xlink:href="#mbd044bc12e" y="207.991246"/>
     <use style="fill:#1f77b4;stroke:#1f77b4;" x="132.353874" xlink:href="#mbd044bc12e" y="200.240443"/>
     <use style="fill:#1f77b4;stroke:#1f77b4;" x="157.644839" xlink:href="#mbd044bc12e" y="184.486561"/>
     <use style="fill:#1f77b4;stroke:#1f77b4;" x="182.935804" xlink:href="#mbd044bc12e" y="184.094386"/>
     <use style="fill:#1f77b4;stroke:#1f77b4;" x="208.226769" xlink:href="#mbd044bc12e" y="164.699652"/>
     <use style="fill:#1f77b4;stroke:#1f77b4;" x="233.517734" xlink:href="#mbd044bc12e" y="188.574979"/>
     <use style="fill:#1f77b4;stroke:#1f77b4;" x="258.808699" xlink:href="#mbd044bc12e" y="175.935451"/>
     <use style="fill:#1f77b4;stroke:#1f77b4;" x="284.099664" xlink:href="#mbd044bc12e" y="155.063885"/>
     <use style="fill:#1f77b4;stroke:#1f77b4;" x="309.390629" xlink:href="#mbd044bc12e" y="145.429535"/>
     <use style="fill:#1f77b4;stroke:#1f77b4;" x="334.681594" xlink:href="#mbd044bc12e" y="135.77879"/>
     <use style="fill:#1f77b4;stroke:#1f77b4;" x="359.972559" xlink:href="#mbd044bc12e" y="112.201336"/>
     <use style="fill:#1f77b4;stroke:#1f77b4;" x="385.263524" xlink:href="#mbd044bc12e" y="90.903562"/>
     <use style="fill:#1f77b4;stroke:#1f77b4;" x="410.554489" xlink:href="#mbd044bc12e" y="68.341983"/>
     <use style="fill:#1f77b4;stroke:#1f77b4;" x="435.845455" xlink:href="#mbd044bc12e" y="68.341983"/>
    </g>
   </g>
   <g id="line2d_20">
    <path clip-path="url(#p6d95d90aac)" d="M 80.754545 225.581653 
L 104.230529 206.334586 
L 127.706513 212.248927 
L 151.182497 205.827926 
L 174.658481 168.475423 
L 198.134464 190.727298 
L 221.610448 180.875849 
L 245.086432 171.247283 
L 268.562416 171.372244 
L 292.0384 168.022331 
L 315.514383 171.924291 
L 338.990367 127.310189 
L 362.466351 146.092654 
L 385.942335 108.360711 
L 409.418319 146.092654 
" style="fill:none;stroke:#ff7f0e;stroke-linecap:square;stroke-width:1.5;"/>
    <defs>
     <path d="M 0 3 
C 0.795609 3 1.55874 2.683901 2.12132 2.12132 
C 2.683901 1.55874 3 0.795609 3 0 
C 3 -0.795609 2.683901 -1.55874 2.12132 -2.12132 
C 1.55874 -2.683901 0.795609 -3 0 -3 
C -0.795609 -3 -1.55874 -2.683901 -2.12132 -2.12132 
C -2.683901 -1.55874 -3 -0.795609 -3 0 
C -3 0.795609 -2.683901 1.55874 -2.12132 2.12132 
C -1.55874 2.683901 -0.795609 3 0 3 
z
" id="m5dadf1c07c" style="stroke:#ff7f0e;"/>
    </defs>
    <g clip-path="url(#p6d95d90aac)">
     <use style="fill:#ff7f0e;stroke:#ff7f0e;" x="80.754545" xlink:href="#m5dadf1c07c" y="225.581653"/>
     <use style="fill:#ff7f0e;stroke:#ff7f0e;" x="104.230529" xlink:href="#m5dadf1c07c" y="206.334586"/>
     <use style="fill:#ff7f0e;stroke:#ff7f0e;" x="127.706513" xlink:href="#m5dadf1c07c" y="212.248927"/>
     <use style="fill:#ff7f0e;stroke:#ff7f0e;" x="151.182497" xlink:href="#m5dadf1c07c" y="205.827926"/>
     <use style="fill:#ff7f0e;stroke:#ff7f0e;" x="174.658481" xlink:href="#m5dadf1c07c" y="168.475423"/>
     <use style="fill:#ff7f0e;stroke:#ff7f0e;" x="198.134464" xlink:href="#m5dadf1c07c" y="190.727298"/>
     <use style="fill:#ff7f0e;stroke:#ff7f0e;" x="221.610448" xlink:href="#m5dadf1c07c" y="180.875849"/>
     <use style="fill:#ff7f0e;stroke:#ff7f0e;" x="245.086432" xlink:href="#m5dadf1c07c" y="171.247283"/>
     <use style="fill:#ff7f0e;stroke:#ff7f0e;" x="268.562416" xlink:href="#m5dadf1c07c" y="171.372244"/>
     <use style="fill:#ff7f0e;stroke:#ff7f0e;" x="292.0384" xlink:href="#m5dadf1c07c" y="168.022331"/>
     <use style="fill:#ff7f0e;stroke:#ff7f0e;" x="315.514383" xlink:href="#m5dadf1c07c" y="171.924291"/>
     <use style="fill:#ff7f0e;stroke:#ff7f0e;" x="338.990367" xlink:href="#m5dadf1c07c" y="127.310189"/>
     <use style="fill:#ff7f0e;stroke:#ff7f0e;" x="362.466351" xlink:href="#m5dadf1c07c" y="146.092654"/>
     <use style="fill:#ff7f0e;stroke:#ff7f0e;" x="385.942335" xlink:href="#m5dadf1c07c" y="108.360711"/>
     <use style="fill:#ff7f0e;stroke:#ff7f0e;" x="409.418319" xlink:href="#m5dadf1c07c" y="146.092654"/>
    </g>
   </g>
   <g id="patch_3">
    <path d="M 63 233.443636 
L 63 60.48 
" style="fill:none;stroke:#000000;stroke-linecap:square;stroke-linejoin:miter;stroke-width:0.8;"/>
   </g>
   <g id="patch_4">
    <path d="M 453.6 233.443636 
L 453.6 60.48 
" style="fill:none;stroke:#000000;stroke-linecap:square;stroke-linejoin:miter;stroke-width:0.8;"/>
   </g>
   <g id="patch_5">
    <path d="M 63 233.443636 
L 453.6 233.443636 
" style="fill:none;stroke:#000000;stroke-linecap:square;stroke-linejoin:miter;stroke-width:0.8;"/>
   </g>
   <g id="patch_6">
    <path d="M 63 60.48 
L 453.6 60.48 
" style="fill:none;stroke:#000000;stroke-linecap:square;stroke-linejoin:miter;stroke-width:0.8;"/>
   </g>
   <g id="legend_1">
    <g id="patch_7">
     <path d="M 70 98.3925 
L 231.407813 98.3925 
Q 233.407813 98.3925 233.407813 96.3925 
L 233.407813 67.48 
Q 233.407813 65.48 231.407813 65.48 
L 70 65.48 
Q 68 65.48 68 67.48 
L 68 96.3925 
Q 68 98.3925 70 98.3925 
z
" style="fill:#ffffff;opacity:0.8;stroke:#cccccc;stroke-linejoin:miter;"/>
    </g>
    <g id="line2d_21">
     <path d="M 72 73.578438 
L 92 73.578438 
" style="fill:none;stroke:#1f77b4;stroke-linecap:square;stroke-width:1.5;"/>
    </g>
    <g id="line2d_22">
     <g>
      <use style="fill:#1f77b4;stroke:#1f77b4;" x="82" xlink:href="#mbd044bc12e" y="73.578438"/>
     </g>
    </g>
    <g id="text_11">
     <!-- ULR_eq_opp_in_False s=0 -->
     <defs>
      <path d="M 8.6875 72.90625 
L 18.609375 72.90625 
L 18.609375 28.609375 
Q 18.609375 16.890625 22.84375 11.734375 
Q 27.09375 6.59375 36.625 6.59375 
Q 46.09375 6.59375 50.34375 11.734375 
Q 54.59375 16.890625 54.59375 28.609375 
L 54.59375 72.90625 
L 64.5 72.90625 
L 64.5 27.390625 
Q 64.5 13.140625 57.4375 5.859375 
Q 50.390625 -1.421875 36.625 -1.421875 
Q 22.796875 -1.421875 15.734375 5.859375 
Q 8.6875 13.140625 8.6875 27.390625 
z
" id="DejaVuSans-55"/>
      <path d="M 9.8125 72.90625 
L 19.671875 72.90625 
L 19.671875 8.296875 
L 55.171875 8.296875 
L 55.171875 0 
L 9.8125 0 
z
" id="DejaVuSans-4c"/>
      <path d="M 44.390625 34.1875 
Q 47.5625 33.109375 50.5625 29.59375 
Q 53.5625 26.078125 56.59375 19.921875 
L 66.609375 0 
L 56 0 
L 46.6875 18.703125 
Q 43.0625 26.03125 39.671875 28.421875 
Q 36.28125 30.8125 30.421875 30.8125 
L 19.671875 30.8125 
L 19.671875 0 
L 9.8125 0 
L 9.8125 72.90625 
L 32.078125 72.90625 
Q 44.578125 72.90625 50.734375 67.671875 
Q 56.890625 62.453125 56.890625 51.90625 
Q 56.890625 45.015625 53.6875 40.46875 
Q 50.484375 35.9375 44.390625 34.1875 
z
M 19.671875 64.796875 
L 19.671875 38.921875 
L 32.078125 38.921875 
Q 39.203125 38.921875 42.84375 42.21875 
Q 46.484375 45.515625 46.484375 51.90625 
Q 46.484375 58.296875 42.84375 61.546875 
Q 39.203125 64.796875 32.078125 64.796875 
z
" id="DejaVuSans-52"/>
      <path d="M 50.984375 -16.609375 
L 50.984375 -23.578125 
L -0.984375 -23.578125 
L -0.984375 -16.609375 
z
" id="DejaVuSans-5f"/>
      <path d="M 56.203125 29.59375 
L 56.203125 25.203125 
L 14.890625 25.203125 
Q 15.484375 15.921875 20.484375 11.0625 
Q 25.484375 6.203125 34.421875 6.203125 
Q 39.59375 6.203125 44.453125 7.46875 
Q 49.3125 8.734375 54.109375 11.28125 
L 54.109375 2.78125 
Q 49.265625 0.734375 44.1875 -0.34375 
Q 39.109375 -1.421875 33.890625 -1.421875 
Q 20.796875 -1.421875 13.15625 6.1875 
Q 5.515625 13.8125 5.515625 26.8125 
Q 5.515625 40.234375 12.765625 48.109375 
Q 20.015625 56 32.328125 56 
Q 43.359375 56 49.78125 48.890625 
Q 56.203125 41.796875 56.203125 29.59375 
z
M 47.21875 32.234375 
Q 47.125 39.59375 43.09375 43.984375 
Q 39.0625 48.390625 32.421875 48.390625 
Q 24.90625 48.390625 20.390625 44.140625 
Q 15.875 39.890625 15.1875 32.171875 
z
" id="DejaVuSans-65"/>
      <path d="M 14.796875 27.296875 
Q 14.796875 17.390625 18.875 11.75 
Q 22.953125 6.109375 30.078125 6.109375 
Q 37.203125 6.109375 41.296875 11.75 
Q 45.40625 17.390625 45.40625 27.296875 
Q 45.40625 37.203125 41.296875 42.84375 
Q 37.203125 48.484375 30.078125 48.484375 
Q 22.953125 48.484375 18.875 42.84375 
Q 14.796875 37.203125 14.796875 27.296875 
z
M 45.40625 8.203125 
Q 42.578125 3.328125 38.25 0.953125 
Q 33.9375 -1.421875 27.875 -1.421875 
Q 17.96875 -1.421875 11.734375 6.484375 
Q 5.515625 14.40625 5.515625 27.296875 
Q 5.515625 40.1875 11.734375 48.09375 
Q 17.96875 56 27.875 56 
Q 33.9375 56 38.25 53.625 
Q 42.578125 51.265625 45.40625 46.390625 
L 45.40625 54.6875 
L 54.390625 54.6875 
L 54.390625 -20.796875 
L 45.40625 -20.796875 
z
" id="DejaVuSans-71"/>
      <path d="M 30.609375 48.390625 
Q 23.390625 48.390625 19.1875 42.75 
Q 14.984375 37.109375 14.984375 27.296875 
Q 14.984375 17.484375 19.15625 11.84375 
Q 23.34375 6.203125 30.609375 6.203125 
Q 37.796875 6.203125 41.984375 11.859375 
Q 46.1875 17.53125 46.1875 27.296875 
Q 46.1875 37.015625 41.984375 42.703125 
Q 37.796875 48.390625 30.609375 48.390625 
z
M 30.609375 56 
Q 42.328125 56 49.015625 48.375 
Q 55.71875 40.765625 55.71875 27.296875 
Q 55.71875 13.875 49.015625 6.21875 
Q 42.328125 -1.421875 30.609375 -1.421875 
Q 18.84375 -1.421875 12.171875 6.21875 
Q 5.515625 13.875 5.515625 27.296875 
Q 5.515625 40.765625 12.171875 48.375 
Q 18.84375 56 30.609375 56 
z
" id="DejaVuSans-6f"/>
      <path d="M 18.109375 8.203125 
L 18.109375 -20.796875 
L 9.078125 -20.796875 
L 9.078125 54.6875 
L 18.109375 54.6875 
L 18.109375 46.390625 
Q 20.953125 51.265625 25.265625 53.625 
Q 29.59375 56 35.59375 56 
Q 45.5625 56 51.78125 48.09375 
Q 58.015625 40.1875 58.015625 27.296875 
Q 58.015625 14.40625 51.78125 6.484375 
Q 45.5625 -1.421875 35.59375 -1.421875 
Q 29.59375 -1.421875 25.265625 0.953125 
Q 20.953125 3.328125 18.109375 8.203125 
z
M 48.6875 27.296875 
Q 48.6875 37.203125 44.609375 42.84375 
Q 40.53125 48.484375 33.40625 48.484375 
Q 26.265625 48.484375 22.1875 42.84375 
Q 18.109375 37.203125 18.109375 27.296875 
Q 18.109375 17.390625 22.1875 11.75 
Q 26.265625 6.109375 33.40625 6.109375 
Q 40.53125 6.109375 44.609375 11.75 
Q 48.6875 17.390625 48.6875 27.296875 
z
" id="DejaVuSans-70"/>
      <path d="M 9.421875 54.6875 
L 18.40625 54.6875 
L 18.40625 0 
L 9.421875 0 
z
M 9.421875 75.984375 
L 18.40625 75.984375 
L 18.40625 64.59375 
L 9.421875 64.59375 
z
" id="DejaVuSans-69"/>
      <path d="M 54.890625 33.015625 
L 54.890625 0 
L 45.90625 0 
L 45.90625 32.71875 
Q 45.90625 40.484375 42.875 44.328125 
Q 39.84375 48.1875 33.796875 48.1875 
Q 26.515625 48.1875 22.3125 43.546875 
Q 18.109375 38.921875 18.109375 30.90625 
L 18.109375 0 
L 9.078125 0 
L 9.078125 54.6875 
L 18.109375 54.6875 
L 18.109375 46.1875 
Q 21.34375 51.125 25.703125 53.5625 
Q 30.078125 56 35.796875 56 
Q 45.21875 56 50.046875 50.171875 
Q 54.890625 44.34375 54.890625 33.015625 
z
" id="DejaVuSans-6e"/>
      <path d="M 9.8125 72.90625 
L 51.703125 72.90625 
L 51.703125 64.59375 
L 19.671875 64.59375 
L 19.671875 43.109375 
L 48.578125 43.109375 
L 48.578125 34.8125 
L 19.671875 34.8125 
L 19.671875 0 
L 9.8125 0 
z
" id="DejaVuSans-46"/>
      <path d="M 34.28125 27.484375 
Q 23.390625 27.484375 19.1875 25 
Q 14.984375 22.515625 14.984375 16.5 
Q 14.984375 11.71875 18.140625 8.90625 
Q 21.296875 6.109375 26.703125 6.109375 
Q 34.1875 6.109375 38.703125 11.40625 
Q 43.21875 16.703125 43.21875 25.484375 
L 43.21875 27.484375 
z
M 52.203125 31.203125 
L 52.203125 0 
L 43.21875 0 
L 43.21875 8.296875 
Q 40.140625 3.328125 35.546875 0.953125 
Q 30.953125 -1.421875 24.3125 -1.421875 
Q 15.921875 -1.421875 10.953125 3.296875 
Q 6 8.015625 6 15.921875 
Q 6 25.140625 12.171875 29.828125 
Q 18.359375 34.515625 30.609375 34.515625 
L 43.21875 34.515625 
L 43.21875 35.40625 
Q 43.21875 41.609375 39.140625 45 
Q 35.0625 48.390625 27.6875 48.390625 
Q 23 48.390625 18.546875 47.265625 
Q 14.109375 46.140625 10.015625 43.890625 
L 10.015625 52.203125 
Q 14.9375 54.109375 19.578125 55.046875 
Q 24.21875 56 28.609375 56 
Q 40.484375 56 46.34375 49.84375 
Q 52.203125 43.703125 52.203125 31.203125 
z
" id="DejaVuSans-61"/>
      <path d="M 9.421875 75.984375 
L 18.40625 75.984375 
L 18.40625 0 
L 9.421875 0 
z
" id="DejaVuSans-6c"/>
      <path d="M 44.28125 53.078125 
L 44.28125 44.578125 
Q 40.484375 46.53125 36.375 47.5 
Q 32.28125 48.484375 27.875 48.484375 
Q 21.1875 48.484375 17.84375 46.4375 
Q 14.5 44.390625 14.5 40.28125 
Q 14.5 37.15625 16.890625 35.375 
Q 19.28125 33.59375 26.515625 31.984375 
L 29.59375 31.296875 
Q 39.15625 29.25 43.1875 25.515625 
Q 47.21875 21.78125 47.21875 15.09375 
Q 47.21875 7.46875 41.1875 3.015625 
Q 35.15625 -1.421875 24.609375 -1.421875 
Q 20.21875 -1.421875 15.453125 -0.5625 
Q 10.6875 0.296875 5.421875 2 
L 5.421875 11.28125 
Q 10.40625 8.6875 15.234375 7.390625 
Q 20.0625 6.109375 24.8125 6.109375 
Q 31.15625 6.109375 34.5625 8.28125 
Q 37.984375 10.453125 37.984375 14.40625 
Q 37.984375 18.0625 35.515625 20.015625 
Q 33.0625 21.96875 24.703125 23.78125 
L 21.578125 24.515625 
Q 13.234375 26.265625 9.515625 29.90625 
Q 5.8125 33.546875 5.8125 39.890625 
Q 5.8125 47.609375 11.28125 51.796875 
Q 16.75 56 26.8125 56 
Q 31.78125 56 36.171875 55.265625 
Q 40.578125 54.546875 44.28125 53.078125 
z
" id="DejaVuSans-73"/>
      <path id="DejaVuSans-20"/>
     </defs>
     <g transform="translate(100 77.078438)scale(0.1 -0.1)">
      <use xlink:href="#DejaVuSans-55"/>
      <use x="73.193359" xlink:href="#DejaVuSans-4c"/>
      <use x="128.90625" xlink:href="#DejaVuSans-52"/>
      <use x="198.388672" xlink:href="#DejaVuSans-5f"/>
      <use x="248.388672" xlink:href="#DejaVuSans-65"/>
      <use x="309.912109" xlink:href="#DejaVuSans-71"/>
      <use x="373.388672" xlink:href="#DejaVuSans-5f"/>
      <use x="423.388672" xlink:href="#DejaVuSans-6f"/>
      <use x="484.570312" xlink:href="#DejaVuSans-70"/>
      <use x="548.046875" xlink:href="#DejaVuSans-70"/>
      <use x="611.523438" xlink:href="#DejaVuSans-5f"/>
      <use x="661.523438" xlink:href="#DejaVuSans-69"/>
      <use x="689.306641" xlink:href="#DejaVuSans-6e"/>
      <use x="752.685547" xlink:href="#DejaVuSans-5f"/>
      <use x="802.685547" xlink:href="#DejaVuSans-46"/>
      <use x="860.064453" xlink:href="#DejaVuSans-61"/>
      <use x="921.34375" xlink:href="#DejaVuSans-6c"/>
      <use x="949.126953" xlink:href="#DejaVuSans-73"/>
      <use x="1001.226562" xlink:href="#DejaVuSans-65"/>
      <use x="1062.75" xlink:href="#DejaVuSans-20"/>
      <use x="1094.537109" xlink:href="#DejaVuSans-73"/>
      <use x="1146.636719" xlink:href="#DejaVuSans-3d"/>
      <use x="1230.425781" xlink:href="#DejaVuSans-30"/>
     </g>
    </g>
    <g id="line2d_23">
     <path d="M 72 88.534688 
L 92 88.534688 
" style="fill:none;stroke:#ff7f0e;stroke-linecap:square;stroke-width:1.5;"/>
    </g>
    <g id="line2d_24">
     <g>
      <use style="fill:#ff7f0e;stroke:#ff7f0e;" x="82" xlink:href="#m5dadf1c07c" y="88.534688"/>
     </g>
    </g>
    <g id="text_12">
     <!-- ULR_eq_opp_in_False s=1 -->
     <g transform="translate(100 92.034688)scale(0.1 -0.1)">
      <use xlink:href="#DejaVuSans-55"/>
      <use x="73.193359" xlink:href="#DejaVuSans-4c"/>
      <use x="128.90625" xlink:href="#DejaVuSans-52"/>
      <use x="198.388672" xlink:href="#DejaVuSans-5f"/>
      <use x="248.388672" xlink:href="#DejaVuSans-65"/>
      <use x="309.912109" xlink:href="#DejaVuSans-71"/>
      <use x="373.388672" xlink:href="#DejaVuSans-5f"/>
      <use x="423.388672" xlink:href="#DejaVuSans-6f"/>
      <use x="484.570312" xlink:href="#DejaVuSans-70"/>
      <use x="548.046875" xlink:href="#DejaVuSans-70"/>
      <use x="611.523438" xlink:href="#DejaVuSans-5f"/>
      <use x="661.523438" xlink:href="#DejaVuSans-69"/>
      <use x="689.306641" xlink:href="#DejaVuSans-6e"/>
      <use x="752.685547" xlink:href="#DejaVuSans-5f"/>
      <use x="802.685547" xlink:href="#DejaVuSans-46"/>
      <use x="860.064453" xlink:href="#DejaVuSans-61"/>
      <use x="921.34375" xlink:href="#DejaVuSans-6c"/>
      <use x="949.126953" xlink:href="#DejaVuSans-73"/>
      <use x="1001.226562" xlink:href="#DejaVuSans-65"/>
      <use x="1062.75" xlink:href="#DejaVuSans-20"/>
      <use x="1094.537109" xlink:href="#DejaVuSans-73"/>
      <use x="1146.636719" xlink:href="#DejaVuSans-3d"/>
      <use x="1230.425781" xlink:href="#DejaVuSans-31"/>
     </g>
    </g>
   </g>
  </g>
  <g id="axes_2">
   <g id="patch_8">
    <path d="M 63 441 
L 453.6 441 
L 453.6 268.036364 
L 63 268.036364 
z
" style="fill:#ffffff;"/>
   </g>
   <g id="matplotlib.axis_3">
    <g id="xtick_5">
     <g id="line2d_25">
      <path clip-path="url(#p046f37efc4)" d="M 75.75483 441 
L 75.75483 268.036364 
" style="fill:none;stroke:#b0b0b0;stroke-linecap:square;stroke-width:0.8;"/>
     </g>
     <g id="line2d_26">
      <g>
       <use style="stroke:#000000;stroke-width:0.8;" x="75.75483" xlink:href="#m6baf0dc11e" y="441"/>
      </g>
     </g>
     <g id="text_13">
      <!-- 0.2 -->
      <g transform="translate(67.803268 455.598437)scale(0.1 -0.1)">
       <use xlink:href="#DejaVuSans-30"/>
       <use x="63.623047" xlink:href="#DejaVuSans-2e"/>
       <use x="95.410156" xlink:href="#DejaVuSans-32"/>
      </g>
     </g>
    </g>
    <g id="xtick_6">
     <g id="line2d_27">
      <path clip-path="url(#p046f37efc4)" d="M 137.896759 441 
L 137.896759 268.036364 
" style="fill:none;stroke:#b0b0b0;stroke-linecap:square;stroke-width:0.8;"/>
     </g>
     <g id="line2d_28">
      <g>
       <use style="stroke:#000000;stroke-width:0.8;" x="137.896759" xlink:href="#m6baf0dc11e" y="441"/>
      </g>
     </g>
     <g id="text_14">
      <!-- 0.3 -->
      <defs>
       <path d="M 40.578125 39.3125 
Q 47.65625 37.796875 51.625 33 
Q 55.609375 28.21875 55.609375 21.1875 
Q 55.609375 10.40625 48.1875 4.484375 
Q 40.765625 -1.421875 27.09375 -1.421875 
Q 22.515625 -1.421875 17.65625 -0.515625 
Q 12.796875 0.390625 7.625 2.203125 
L 7.625 11.71875 
Q 11.71875 9.328125 16.59375 8.109375 
Q 21.484375 6.890625 26.8125 6.890625 
Q 36.078125 6.890625 40.9375 10.546875 
Q 45.796875 14.203125 45.796875 21.1875 
Q 45.796875 27.640625 41.28125 31.265625 
Q 36.765625 34.90625 28.71875 34.90625 
L 20.21875 34.90625 
L 20.21875 43.015625 
L 29.109375 43.015625 
Q 36.375 43.015625 40.234375 45.921875 
Q 44.09375 48.828125 44.09375 54.296875 
Q 44.09375 59.90625 40.109375 62.90625 
Q 36.140625 65.921875 28.71875 65.921875 
Q 24.65625 65.921875 20.015625 65.03125 
Q 15.375 64.15625 9.8125 62.3125 
L 9.8125 71.09375 
Q 15.4375 72.65625 20.34375 73.4375 
Q 25.25 74.21875 29.59375 74.21875 
Q 40.828125 74.21875 47.359375 69.109375 
Q 53.90625 64.015625 53.90625 55.328125 
Q 53.90625 49.265625 50.4375 45.09375 
Q 46.96875 40.921875 40.578125 39.3125 
z
" id="DejaVuSans-33"/>
      </defs>
      <g transform="translate(129.945196 455.598437)scale(0.1 -0.1)">
       <use xlink:href="#DejaVuSans-30"/>
       <use x="63.623047" xlink:href="#DejaVuSans-2e"/>
       <use x="95.410156" xlink:href="#DejaVuSans-33"/>
      </g>
     </g>
    </g>
    <g id="xtick_7">
     <g id="line2d_29">
      <path clip-path="url(#p046f37efc4)" d="M 200.038687 441 
L 200.038687 268.036364 
" style="fill:none;stroke:#b0b0b0;stroke-linecap:square;stroke-width:0.8;"/>
     </g>
     <g id="line2d_30">
      <g>
       <use style="stroke:#000000;stroke-width:0.8;" x="200.038687" xlink:href="#m6baf0dc11e" y="441"/>
      </g>
     </g>
     <g id="text_15">
      <!-- 0.4 -->
      <g transform="translate(192.087124 455.598437)scale(0.1 -0.1)">
       <use xlink:href="#DejaVuSans-30"/>
       <use x="63.623047" xlink:href="#DejaVuSans-2e"/>
       <use x="95.410156" xlink:href="#DejaVuSans-34"/>
      </g>
     </g>
    </g>
    <g id="xtick_8">
     <g id="line2d_31">
      <path clip-path="url(#p046f37efc4)" d="M 262.180615 441 
L 262.180615 268.036364 
" style="fill:none;stroke:#b0b0b0;stroke-linecap:square;stroke-width:0.8;"/>
     </g>
     <g id="line2d_32">
      <g>
       <use style="stroke:#000000;stroke-width:0.8;" x="262.180615" xlink:href="#m6baf0dc11e" y="441"/>
      </g>
     </g>
     <g id="text_16">
      <!-- 0.5 -->
      <defs>
       <path d="M 10.796875 72.90625 
L 49.515625 72.90625 
L 49.515625 64.59375 
L 19.828125 64.59375 
L 19.828125 46.734375 
Q 21.96875 47.46875 24.109375 47.828125 
Q 26.265625 48.1875 28.421875 48.1875 
Q 40.625 48.1875 47.75 41.5 
Q 54.890625 34.8125 54.890625 23.390625 
Q 54.890625 11.625 47.5625 5.09375 
Q 40.234375 -1.421875 26.90625 -1.421875 
Q 22.3125 -1.421875 17.546875 -0.640625 
Q 12.796875 0.140625 7.71875 1.703125 
L 7.71875 11.625 
Q 12.109375 9.234375 16.796875 8.0625 
Q 21.484375 6.890625 26.703125 6.890625 
Q 35.15625 6.890625 40.078125 11.328125 
Q 45.015625 15.765625 45.015625 23.390625 
Q 45.015625 31 40.078125 35.4375 
Q 35.15625 39.890625 26.703125 39.890625 
Q 22.75 39.890625 18.8125 39.015625 
Q 14.890625 38.140625 10.796875 36.28125 
z
" id="DejaVuSans-35"/>
      </defs>
      <g transform="translate(254.229052 455.598437)scale(0.1 -0.1)">
       <use xlink:href="#DejaVuSans-30"/>
       <use x="63.623047" xlink:href="#DejaVuSans-2e"/>
       <use x="95.410156" xlink:href="#DejaVuSans-35"/>
      </g>
     </g>
    </g>
    <g id="xtick_9">
     <g id="line2d_33">
      <path clip-path="url(#p046f37efc4)" d="M 324.322543 441 
L 324.322543 268.036364 
" style="fill:none;stroke:#b0b0b0;stroke-linecap:square;stroke-width:0.8;"/>
     </g>
     <g id="line2d_34">
      <g>
       <use style="stroke:#000000;stroke-width:0.8;" x="324.322543" xlink:href="#m6baf0dc11e" y="441"/>
      </g>
     </g>
     <g id="text_17">
      <!-- 0.6 -->
      <g transform="translate(316.370981 455.598437)scale(0.1 -0.1)">
       <use xlink:href="#DejaVuSans-30"/>
       <use x="63.623047" xlink:href="#DejaVuSans-2e"/>
       <use x="95.410156" xlink:href="#DejaVuSans-36"/>
      </g>
     </g>
    </g>
    <g id="xtick_10">
     <g id="line2d_35">
      <path clip-path="url(#p046f37efc4)" d="M 386.464471 441 
L 386.464471 268.036364 
" style="fill:none;stroke:#b0b0b0;stroke-linecap:square;stroke-width:0.8;"/>
     </g>
     <g id="line2d_36">
      <g>
       <use style="stroke:#000000;stroke-width:0.8;" x="386.464471" xlink:href="#m6baf0dc11e" y="441"/>
      </g>
     </g>
     <g id="text_18">
      <!-- 0.7 -->
      <defs>
       <path d="M 8.203125 72.90625 
L 55.078125 72.90625 
L 55.078125 68.703125 
L 28.609375 0 
L 18.3125 0 
L 43.21875 64.59375 
L 8.203125 64.59375 
z
" id="DejaVuSans-37"/>
      </defs>
      <g transform="translate(378.512909 455.598437)scale(0.1 -0.1)">
       <use xlink:href="#DejaVuSans-30"/>
       <use x="63.623047" xlink:href="#DejaVuSans-2e"/>
       <use x="95.410156" xlink:href="#DejaVuSans-37"/>
      </g>
     </g>
    </g>
    <g id="xtick_11">
     <g id="line2d_37">
      <path clip-path="url(#p046f37efc4)" d="M 448.606399 441 
L 448.606399 268.036364 
" style="fill:none;stroke:#b0b0b0;stroke-linecap:square;stroke-width:0.8;"/>
     </g>
     <g id="line2d_38">
      <g>
       <use style="stroke:#000000;stroke-width:0.8;" x="448.606399" xlink:href="#m6baf0dc11e" y="441"/>
      </g>
     </g>
     <g id="text_19">
      <!-- 0.8 -->
      <g transform="translate(440.654837 455.598437)scale(0.1 -0.1)">
       <use xlink:href="#DejaVuSans-30"/>
       <use x="63.623047" xlink:href="#DejaVuSans-2e"/>
       <use x="95.410156" xlink:href="#DejaVuSans-38"/>
      </g>
     </g>
    </g>
    <g id="text_20">
     <!-- $P(\hat{y}=1)$ -->
     <defs>
      <path d="M -28.609375 79.984375 
L -21.390625 79.984375 
L -9.421875 61.625 
L -16.21875 61.625 
L -25 73.578125 
L -33.796875 61.625 
L -40.578125 61.625 
z
M -25 56 
z
" id="DejaVuSans-302"/>
     </defs>
     <g transform="translate(239.1 470.878125)scale(0.1 -0.1)">
      <use transform="translate(0 0.828125)" xlink:href="#DejaVuSans-Oblique-50"/>
      <use transform="translate(60.302734 0.828125)" xlink:href="#DejaVuSans-28"/>
      <use transform="translate(161.689453 12.015625)" xlink:href="#DejaVuSans-302"/>
      <use transform="translate(99.316406 0.828125)" xlink:href="#DejaVuSans-Oblique-79"/>
      <use transform="translate(177.978516 0.828125)" xlink:href="#DejaVuSans-3d"/>
      <use transform="translate(281.25 0.828125)" xlink:href="#DejaVuSans-31"/>
      <use transform="translate(344.873047 0.828125)" xlink:href="#DejaVuSans-29"/>
     </g>
    </g>
   </g>
   <g id="matplotlib.axis_4">
    <g id="ytick_6">
     <g id="line2d_39">
      <path clip-path="url(#p046f37efc4)" d="M 63 433.138017 
L 453.6 433.138017 
" style="fill:none;stroke:#b0b0b0;stroke-linecap:square;stroke-width:0.8;"/>
     </g>
     <g id="line2d_40">
      <g>
       <use style="stroke:#000000;stroke-width:0.8;" x="63" xlink:href="#m2dce88b41f" y="433.138017"/>
      </g>
     </g>
     <g id="text_21">
      <!-- 0.0 -->
      <g transform="translate(40.096875 436.937235)scale(0.1 -0.1)">
       <use xlink:href="#DejaVuSans-30"/>
       <use x="63.623047" xlink:href="#DejaVuSans-2e"/>
       <use x="95.410156" xlink:href="#DejaVuSans-30"/>
      </g>
     </g>
    </g>
    <g id="ytick_7">
     <g id="line2d_41">
      <path clip-path="url(#p046f37efc4)" d="M 63 401.690083 
L 453.6 401.690083 
" style="fill:none;stroke:#b0b0b0;stroke-linecap:square;stroke-width:0.8;"/>
     </g>
     <g id="line2d_42">
      <g>
       <use style="stroke:#000000;stroke-width:0.8;" x="63" xlink:href="#m2dce88b41f" y="401.690083"/>
      </g>
     </g>
     <g id="text_22">
      <!-- 0.2 -->
      <g transform="translate(40.096875 405.489301)scale(0.1 -0.1)">
       <use xlink:href="#DejaVuSans-30"/>
       <use x="63.623047" xlink:href="#DejaVuSans-2e"/>
       <use x="95.410156" xlink:href="#DejaVuSans-32"/>
      </g>
     </g>
    </g>
    <g id="ytick_8">
     <g id="line2d_43">
      <path clip-path="url(#p046f37efc4)" d="M 63 370.242149 
L 453.6 370.242149 
" style="fill:none;stroke:#b0b0b0;stroke-linecap:square;stroke-width:0.8;"/>
     </g>
     <g id="line2d_44">
      <g>
       <use style="stroke:#000000;stroke-width:0.8;" x="63" xlink:href="#m2dce88b41f" y="370.242149"/>
      </g>
     </g>
     <g id="text_23">
      <!-- 0.4 -->
      <g transform="translate(40.096875 374.041368)scale(0.1 -0.1)">
       <use xlink:href="#DejaVuSans-30"/>
       <use x="63.623047" xlink:href="#DejaVuSans-2e"/>
       <use x="95.410156" xlink:href="#DejaVuSans-34"/>
      </g>
     </g>
    </g>
    <g id="ytick_9">
     <g id="line2d_45">
      <path clip-path="url(#p046f37efc4)" d="M 63 338.794215 
L 453.6 338.794215 
" style="fill:none;stroke:#b0b0b0;stroke-linecap:square;stroke-width:0.8;"/>
     </g>
     <g id="line2d_46">
      <g>
       <use style="stroke:#000000;stroke-width:0.8;" x="63" xlink:href="#m2dce88b41f" y="338.794215"/>
      </g>
     </g>
     <g id="text_24">
      <!-- 0.6 -->
      <g transform="translate(40.096875 342.593434)scale(0.1 -0.1)">
       <use xlink:href="#DejaVuSans-30"/>
       <use x="63.623047" xlink:href="#DejaVuSans-2e"/>
       <use x="95.410156" xlink:href="#DejaVuSans-36"/>
      </g>
     </g>
    </g>
    <g id="ytick_10">
     <g id="line2d_47">
      <path clip-path="url(#p046f37efc4)" d="M 63 307.346281 
L 453.6 307.346281 
" style="fill:none;stroke:#b0b0b0;stroke-linecap:square;stroke-width:0.8;"/>
     </g>
     <g id="line2d_48">
      <g>
       <use style="stroke:#000000;stroke-width:0.8;" x="63" xlink:href="#m2dce88b41f" y="307.346281"/>
      </g>
     </g>
     <g id="text_25">
      <!-- 0.8 -->
      <g transform="translate(40.096875 311.1455)scale(0.1 -0.1)">
       <use xlink:href="#DejaVuSans-30"/>
       <use x="63.623047" xlink:href="#DejaVuSans-2e"/>
       <use x="95.410156" xlink:href="#DejaVuSans-38"/>
      </g>
     </g>
    </g>
    <g id="ytick_11">
     <g id="line2d_49">
      <path clip-path="url(#p046f37efc4)" d="M 63 275.898347 
L 453.6 275.898347 
" style="fill:none;stroke:#b0b0b0;stroke-linecap:square;stroke-width:0.8;"/>
     </g>
     <g id="line2d_50">
      <g>
       <use style="stroke:#000000;stroke-width:0.8;" x="63" xlink:href="#m2dce88b41f" y="275.898347"/>
      </g>
     </g>
     <g id="text_26">
      <!-- 1.0 -->
      <g transform="translate(40.096875 279.697566)scale(0.1 -0.1)">
       <use xlink:href="#DejaVuSans-31"/>
       <use x="63.623047" xlink:href="#DejaVuSans-2e"/>
       <use x="95.410156" xlink:href="#DejaVuSans-30"/>
      </g>
     </g>
    </g>
    <g id="text_27">
     <!-- $P(y=1)$ -->
     <g transform="translate(33.996875 373.718182)rotate(-90)scale(0.1 -0.1)">
      <use transform="translate(0 0.125)" xlink:href="#DejaVuSans-Oblique-50"/>
      <use transform="translate(60.302734 0.125)" xlink:href="#DejaVuSans-28"/>
      <use transform="translate(99.316406 0.125)" xlink:href="#DejaVuSans-Oblique-79"/>
      <use transform="translate(177.978516 0.125)" xlink:href="#DejaVuSans-3d"/>
      <use transform="translate(281.25 0.125)" xlink:href="#DejaVuSans-31"/>
      <use transform="translate(344.873047 0.125)" xlink:href="#DejaVuSans-29"/>
     </g>
    </g>
   </g>
   <g id="line2d_51">
    <path clip-path="url(#p046f37efc4)" d="M 91.87908 425.276033 
L 116.448107 397.073872 
L 141.017134 389.370273 
L 165.58616 392.654669 
L 190.155187 380.189965 
L 214.724214 375.672916 
L 239.293241 362.805743 
L 263.862267 350.198411 
L 288.431294 334.048341 
L 313.000321 326.757539 
L 337.569348 304.074242 
L 362.138374 288.377686 
L 386.707401 275.898347 
L 411.276428 275.898347 
L 435.845455 275.898347 
" style="fill:none;stroke:#1f77b4;stroke-linecap:square;stroke-width:1.5;"/>
    <g clip-path="url(#p046f37efc4)">
     <use style="fill:#1f77b4;stroke:#1f77b4;" x="91.87908" xlink:href="#mbd044bc12e" y="425.276033"/>
     <use style="fill:#1f77b4;stroke:#1f77b4;" x="116.448107" xlink:href="#mbd044bc12e" y="397.073872"/>
     <use style="fill:#1f77b4;stroke:#1f77b4;" x="141.017134" xlink:href="#mbd044bc12e" y="389.370273"/>
     <use style="fill:#1f77b4;stroke:#1f77b4;" x="165.58616" xlink:href="#mbd044bc12e" y="392.654669"/>
     <use style="fill:#1f77b4;stroke:#1f77b4;" x="190.155187" xlink:href="#mbd044bc12e" y="380.189965"/>
     <use style="fill:#1f77b4;stroke:#1f77b4;" x="214.724214" xlink:href="#mbd044bc12e" y="375.672916"/>
     <use style="fill:#1f77b4;stroke:#1f77b4;" x="239.293241" xlink:href="#mbd044bc12e" y="362.805743"/>
     <use style="fill:#1f77b4;stroke:#1f77b4;" x="263.862267" xlink:href="#mbd044bc12e" y="350.198411"/>
     <use style="fill:#1f77b4;stroke:#1f77b4;" x="288.431294" xlink:href="#mbd044bc12e" y="334.048341"/>
     <use style="fill:#1f77b4;stroke:#1f77b4;" x="313.000321" xlink:href="#mbd044bc12e" y="326.757539"/>
     <use style="fill:#1f77b4;stroke:#1f77b4;" x="337.569348" xlink:href="#mbd044bc12e" y="304.074242"/>
     <use style="fill:#1f77b4;stroke:#1f77b4;" x="362.138374" xlink:href="#mbd044bc12e" y="288.377686"/>
     <use style="fill:#1f77b4;stroke:#1f77b4;" x="386.707401" xlink:href="#mbd044bc12e" y="275.898347"/>
     <use style="fill:#1f77b4;stroke:#1f77b4;" x="411.276428" xlink:href="#mbd044bc12e" y="275.898347"/>
     <use style="fill:#1f77b4;stroke:#1f77b4;" x="435.845455" xlink:href="#mbd044bc12e" y="275.898347"/>
    </g>
   </g>
   <g id="line2d_52">
    <path clip-path="url(#p046f37efc4)" d="M 80.754545 433.138017 
L 102.986981 402.017665 
L 125.219416 402.133011 
L 147.451851 390.951764 
L 169.684287 398.68975 
L 191.916722 377.602303 
L 214.149157 373.56704 
L 236.381592 361.98209 
L 258.614028 350.446238 
L 280.846463 359.654151 
L 303.078898 343.748341 
L 325.311333 329.156945 
L 347.543769 303.244377 
L 369.776204 323.070248 
L 392.008639 275.898347 
" style="fill:none;stroke:#ff7f0e;stroke-linecap:square;stroke-width:1.5;"/>
    <g clip-path="url(#p046f37efc4)">
     <use style="fill:#ff7f0e;stroke:#ff7f0e;" x="80.754545" xlink:href="#m5dadf1c07c" y="433.138017"/>
     <use style="fill:#ff7f0e;stroke:#ff7f0e;" x="102.986981" xlink:href="#m5dadf1c07c" y="402.017665"/>
     <use style="fill:#ff7f0e;stroke:#ff7f0e;" x="125.219416" xlink:href="#m5dadf1c07c" y="402.133011"/>
     <use style="fill:#ff7f0e;stroke:#ff7f0e;" x="147.451851" xlink:href="#m5dadf1c07c" y="390.951764"/>
     <use style="fill:#ff7f0e;stroke:#ff7f0e;" x="169.684287" xlink:href="#m5dadf1c07c" y="398.68975"/>
     <use style="fill:#ff7f0e;stroke:#ff7f0e;" x="191.916722" xlink:href="#m5dadf1c07c" y="377.602303"/>
     <use style="fill:#ff7f0e;stroke:#ff7f0e;" x="214.149157" xlink:href="#m5dadf1c07c" y="373.56704"/>
     <use style="fill:#ff7f0e;stroke:#ff7f0e;" x="236.381592" xlink:href="#m5dadf1c07c" y="361.98209"/>
     <use style="fill:#ff7f0e;stroke:#ff7f0e;" x="258.614028" xlink:href="#m5dadf1c07c" y="350.446238"/>
     <use style="fill:#ff7f0e;stroke:#ff7f0e;" x="280.846463" xlink:href="#m5dadf1c07c" y="359.654151"/>
     <use style="fill:#ff7f0e;stroke:#ff7f0e;" x="303.078898" xlink:href="#m5dadf1c07c" y="343.748341"/>
     <use style="fill:#ff7f0e;stroke:#ff7f0e;" x="325.311333" xlink:href="#m5dadf1c07c" y="329.156945"/>
     <use style="fill:#ff7f0e;stroke:#ff7f0e;" x="347.543769" xlink:href="#m5dadf1c07c" y="303.244377"/>
     <use style="fill:#ff7f0e;stroke:#ff7f0e;" x="369.776204" xlink:href="#m5dadf1c07c" y="323.070248"/>
     <use style="fill:#ff7f0e;stroke:#ff7f0e;" x="392.008639" xlink:href="#m5dadf1c07c" y="275.898347"/>
    </g>
   </g>
   <g id="patch_9">
    <path d="M 63 441 
L 63 268.036364 
" style="fill:none;stroke:#000000;stroke-linecap:square;stroke-linejoin:miter;stroke-width:0.8;"/>
   </g>
   <g id="patch_10">
    <path d="M 453.6 441 
L 453.6 268.036364 
" style="fill:none;stroke:#000000;stroke-linecap:square;stroke-linejoin:miter;stroke-width:0.8;"/>
   </g>
   <g id="patch_11">
    <path d="M 63 441 
L 453.6 441 
" style="fill:none;stroke:#000000;stroke-linecap:square;stroke-linejoin:miter;stroke-width:0.8;"/>
   </g>
   <g id="patch_12">
    <path d="M 63 268.036364 
L 453.6 268.036364 
" style="fill:none;stroke:#000000;stroke-linecap:square;stroke-linejoin:miter;stroke-width:0.8;"/>
   </g>
   <g id="legend_2">
    <g id="patch_13">
     <path d="M 70 305.948864 
L 186.771875 305.948864 
Q 188.771875 305.948864 188.771875 303.948864 
L 188.771875 275.036364 
Q 188.771875 273.036364 186.771875 273.036364 
L 70 273.036364 
Q 68 273.036364 68 275.036364 
L 68 303.948864 
Q 68 305.948864 70 305.948864 
z
" style="fill:#ffffff;opacity:0.8;stroke:#cccccc;stroke-linejoin:miter;"/>
    </g>
    <g id="line2d_53">
     <path d="M 72 281.134801 
L 92 281.134801 
" style="fill:none;stroke:#1f77b4;stroke-linecap:square;stroke-width:1.5;"/>
    </g>
    <g id="line2d_54">
     <g>
      <use style="fill:#1f77b4;stroke:#1f77b4;" x="82" xlink:href="#mbd044bc12e" y="281.134801"/>
     </g>
    </g>
    <g id="text_28">
     <!-- ULR_in_True s=0 -->
     <defs>
      <path d="M -0.296875 72.90625 
L 61.375 72.90625 
L 61.375 64.59375 
L 35.5 64.59375 
L 35.5 0 
L 25.59375 0 
L 25.59375 64.59375 
L -0.296875 64.59375 
z
" id="DejaVuSans-54"/>
      <path d="M 41.109375 46.296875 
Q 39.59375 47.171875 37.8125 47.578125 
Q 36.03125 48 33.890625 48 
Q 26.265625 48 22.1875 43.046875 
Q 18.109375 38.09375 18.109375 28.8125 
L 18.109375 0 
L 9.078125 0 
L 9.078125 54.6875 
L 18.109375 54.6875 
L 18.109375 46.1875 
Q 20.953125 51.171875 25.484375 53.578125 
Q 30.03125 56 36.53125 56 
Q 37.453125 56 38.578125 55.875 
Q 39.703125 55.765625 41.0625 55.515625 
z
" id="DejaVuSans-72"/>
      <path d="M 8.5 21.578125 
L 8.5 54.6875 
L 17.484375 54.6875 
L 17.484375 21.921875 
Q 17.484375 14.15625 20.5 10.265625 
Q 23.53125 6.390625 29.59375 6.390625 
Q 36.859375 6.390625 41.078125 11.03125 
Q 45.3125 15.671875 45.3125 23.6875 
L 45.3125 54.6875 
L 54.296875 54.6875 
L 54.296875 0 
L 45.3125 0 
L 45.3125 8.40625 
Q 42.046875 3.421875 37.71875 1 
Q 33.40625 -1.421875 27.6875 -1.421875 
Q 18.265625 -1.421875 13.375 4.4375 
Q 8.5 10.296875 8.5 21.578125 
z
M 31.109375 56 
z
" id="DejaVuSans-75"/>
     </defs>
     <g transform="translate(100 284.634801)scale(0.1 -0.1)">
      <use xlink:href="#DejaVuSans-55"/>
      <use x="73.193359" xlink:href="#DejaVuSans-4c"/>
      <use x="128.90625" xlink:href="#DejaVuSans-52"/>
      <use x="198.388672" xlink:href="#DejaVuSans-5f"/>
      <use x="248.388672" xlink:href="#DejaVuSans-69"/>
      <use x="276.171875" xlink:href="#DejaVuSans-6e"/>
      <use x="339.550781" xlink:href="#DejaVuSans-5f"/>
      <use x="389.550781" xlink:href="#DejaVuSans-54"/>
      <use x="450.416016" xlink:href="#DejaVuSans-72"/>
      <use x="491.529297" xlink:href="#DejaVuSans-75"/>
      <use x="554.908203" xlink:href="#DejaVuSans-65"/>
      <use x="616.431641" xlink:href="#DejaVuSans-20"/>
      <use x="648.21875" xlink:href="#DejaVuSans-73"/>
      <use x="700.318359" xlink:href="#DejaVuSans-3d"/>
      <use x="784.107422" xlink:href="#DejaVuSans-30"/>
     </g>
    </g>
    <g id="line2d_55">
     <path d="M 72 296.091051 
L 92 296.091051 
" style="fill:none;stroke:#ff7f0e;stroke-linecap:square;stroke-width:1.5;"/>
    </g>
    <g id="line2d_56">
     <g>
      <use style="fill:#ff7f0e;stroke:#ff7f0e;" x="82" xlink:href="#m5dadf1c07c" y="296.091051"/>
     </g>
    </g>
    <g id="text_29">
     <!-- ULR_in_True s=1 -->
     <g transform="translate(100 299.591051)scale(0.1 -0.1)">
      <use xlink:href="#DejaVuSans-55"/>
      <use x="73.193359" xlink:href="#DejaVuSans-4c"/>
      <use x="128.90625" xlink:href="#DejaVuSans-52"/>
      <use x="198.388672" xlink:href="#DejaVuSans-5f"/>
      <use x="248.388672" xlink:href="#DejaVuSans-69"/>
      <use x="276.171875" xlink:href="#DejaVuSans-6e"/>
      <use x="339.550781" xlink:href="#DejaVuSans-5f"/>
      <use x="389.550781" xlink:href="#DejaVuSans-54"/>
      <use x="450.416016" xlink:href="#DejaVuSans-72"/>
      <use x="491.529297" xlink:href="#DejaVuSans-75"/>
      <use x="554.908203" xlink:href="#DejaVuSans-65"/>
      <use x="616.431641" xlink:href="#DejaVuSans-20"/>
      <use x="648.21875" xlink:href="#DejaVuSans-73"/>
      <use x="700.318359" xlink:href="#DejaVuSans-3d"/>
      <use x="784.107422" xlink:href="#DejaVuSans-31"/>
     </g>
    </g>
   </g>
  </g>
  <g id="text_30">
   <!-- Propublica (race) -->
   <defs>
    <path d="M 19.671875 64.796875 
L 19.671875 37.40625 
L 32.078125 37.40625 
Q 38.96875 37.40625 42.71875 40.96875 
Q 46.484375 44.53125 46.484375 51.125 
Q 46.484375 57.671875 42.71875 61.234375 
Q 38.96875 64.796875 32.078125 64.796875 
z
M 9.8125 72.90625 
L 32.078125 72.90625 
Q 44.34375 72.90625 50.609375 67.359375 
Q 56.890625 61.8125 56.890625 51.125 
Q 56.890625 40.328125 50.609375 34.8125 
Q 44.34375 29.296875 32.078125 29.296875 
L 19.671875 29.296875 
L 19.671875 0 
L 9.8125 0 
z
" id="DejaVuSans-50"/>
    <path d="M 48.6875 27.296875 
Q 48.6875 37.203125 44.609375 42.84375 
Q 40.53125 48.484375 33.40625 48.484375 
Q 26.265625 48.484375 22.1875 42.84375 
Q 18.109375 37.203125 18.109375 27.296875 
Q 18.109375 17.390625 22.1875 11.75 
Q 26.265625 6.109375 33.40625 6.109375 
Q 40.53125 6.109375 44.609375 11.75 
Q 48.6875 17.390625 48.6875 27.296875 
z
M 18.109375 46.390625 
Q 20.953125 51.265625 25.265625 53.625 
Q 29.59375 56 35.59375 56 
Q 45.5625 56 51.78125 48.09375 
Q 58.015625 40.1875 58.015625 27.296875 
Q 58.015625 14.40625 51.78125 6.484375 
Q 45.5625 -1.421875 35.59375 -1.421875 
Q 29.59375 -1.421875 25.265625 0.953125 
Q 20.953125 3.328125 18.109375 8.203125 
L 18.109375 0 
L 9.078125 0 
L 9.078125 75.984375 
L 18.109375 75.984375 
z
" id="DejaVuSans-62"/>
    <path d="M 48.78125 52.59375 
L 48.78125 44.1875 
Q 44.96875 46.296875 41.140625 47.34375 
Q 37.3125 48.390625 33.40625 48.390625 
Q 24.65625 48.390625 19.8125 42.84375 
Q 14.984375 37.3125 14.984375 27.296875 
Q 14.984375 17.28125 19.8125 11.734375 
Q 24.65625 6.203125 33.40625 6.203125 
Q 37.3125 6.203125 41.140625 7.25 
Q 44.96875 8.296875 48.78125 10.40625 
L 48.78125 2.09375 
Q 45.015625 0.34375 40.984375 -0.53125 
Q 36.96875 -1.421875 32.421875 -1.421875 
Q 20.0625 -1.421875 12.78125 6.34375 
Q 5.515625 14.109375 5.515625 27.296875 
Q 5.515625 40.671875 12.859375 48.328125 
Q 20.21875 56 33.015625 56 
Q 37.15625 56 41.109375 55.140625 
Q 45.0625 54.296875 48.78125 52.59375 
z
" id="DejaVuSans-63"/>
   </defs>
   <g transform="translate(200.79375 19.198125)scale(0.12 -0.12)">
    <use xlink:href="#DejaVuSans-50"/>
    <use x="60.287109" xlink:href="#DejaVuSans-72"/>
    <use x="101.369141" xlink:href="#DejaVuSans-6f"/>
    <use x="162.550781" xlink:href="#DejaVuSans-70"/>
    <use x="226.027344" xlink:href="#DejaVuSans-75"/>
    <use x="289.40625" xlink:href="#DejaVuSans-62"/>
    <use x="352.882812" xlink:href="#DejaVuSans-6c"/>
    <use x="380.666016" xlink:href="#DejaVuSans-69"/>
    <use x="408.449219" xlink:href="#DejaVuSans-63"/>
    <use x="463.429688" xlink:href="#DejaVuSans-61"/>
    <use x="524.708984" xlink:href="#DejaVuSans-20"/>
    <use x="556.496094" xlink:href="#DejaVuSans-28"/>
    <use x="595.509766" xlink:href="#DejaVuSans-72"/>
    <use x="636.623047" xlink:href="#DejaVuSans-61"/>
    <use x="697.902344" xlink:href="#DejaVuSans-63"/>
    <use x="752.882812" xlink:href="#DejaVuSans-65"/>
    <use x="814.40625" xlink:href="#DejaVuSans-29"/>
   </g>
  </g>
 </g>
 <defs>
  <clipPath id="p6d95d90aac">
   <rect height="172.963636" width="390.6" x="63" y="60.48"/>
  </clipPath>
  <clipPath id="p046f37efc4">
   <rect height="172.963636" width="390.6" x="63" y="268.036364"/>
  </clipPath>
 </defs>
</svg>
